# xmcd
#
# Track frame offsets:
#	150
#	17382
#	34846
#	46995
#	60759
#	82430
#	106982
#	118389
#	135541
#	153790
#	171091
#	185542
#	200369
#	216994
#	230871
#	246947
#	262754
#	287268
#	302689
#
# Disc length: 4222 seconds
#
# Revision: 1
# Processed by: cddbd v1.5.2PL0 Copyright (c) Steve Scherf et al.
# Submitted via: audiograbber 1.83.01
#
DISCID=04107c13
DTITLE=div - De Zwarte Lijst vol1 [CD2)
DYEAR=1900
DGENRE=Soul
TTITLE0=Jamie Lidell - Another Day 
TTITLE1=Marvin Gaye - What's Going On (Album Version) 
TTITLE2=Norah Jones - Chasing Pirates 
TTITLE3=Gregory Porter - Illusion 
TTITLE4=Omar, Stevie Wonder - Feeling You 
TTITLE5=B.B. King - The Thrill Is Gone 
TTITLE6=Kyteman - Sorry 
TTITLE7=Earth, Wind and Fire - Fantasy (Album Version) 
TTITLE8=Jamie Cullum - Get Your Way (Album Version) 
TTITLE9=Alicia Keys - If I Ain't Got You (Radio Edit) 
TTITLE10=The Isley Brothers - Work To Do 
TTITLE11=Isaac Hayes - Theme From Shaft (Single Version) 
TTITLE12=Mayer Hawthorne - Dreaming (Album Version) 
TTITLE13=Sly and The Family Stone - Family Affair 
TTITLE14=Buckshot Lefonque - Another Day 
TTITLE15=Concrete Sneaker - Good Old Days 
TTITLE16=Dave Brubeck - Take Five 
TTITLE17=Raul Midon - State Of Mind 
TTITLE18=The O'Jays - Back Stabbers 
EXTD=
EXTT0=
EXTT1=
EXTT2=
EXTT3=
EXTT4=
EXTT5=
EXTT6=
EXTT7=
EXTT8=
EXTT9=
EXTT10=
EXTT11=
EXTT12=
EXTT13=
EXTT14=
EXTT15=
EXTT16=
EXTT17=
EXTT18=
PLAYORDER=
